FILE "Lunar - Silver Star Story Complete (USA) - [Undub and Revert USA Changes v1.0 by RyleFury] (Disc 1).bin" BINARY
  TRACK 01 MODE2/2352
    INDEX 01 00:00:00
  TRACK 02 AUDIO
    PREGAP 00:02:00
    INDEX 00 51:42:74
    INDEX 01 51:43:00
  TRACK 03 AUDIO
    INDEX 00 54:11:47
    INDEX 01 54:13:47
